# xmcd
#
# Track frame offsets: 
#        150
#        15632
#        28107
#        47077
#        67912
#        84415
#        103077
#        119592
#        136335
#        151870
#        165180
#
# Disc length: 2493 seconds
#
# Revision: 4
# Processed by: cddbd v1.5.2PL0 Copyright (c) Steve Scherf et al.
# Submitted via: ExactAudioCopy v0.99pb5
#
DISCID=8109bb0b
DTITLE=Sonny Terry and Brownie McGhee - Conversation With The River
DYEAR=1991
DGENRE=Blues
TTITLE0=I Can't See Why My Baby Don't Write To Me
TTITLE1=Conversation With The River
TTITLE2=I Feel So Good
TTITLE3=Different Blues
TTITLE4=Going To Kansas City
TTITLE5=Freight Train
TTITLE6=Sweetheart
TTITLE7=I Got My Eyes On You
TTITLE8=I Love You Baby, Please Don't Go
TTITLE9=Mean Woman Blues
TTITLE10=Blues, Blues, Blues
EXTD=
EXTT0=
EXTT1=
EXTT2=
EXTT3=
EXTT4=
EXTT5=
EXTT6=
EXTT7=
EXTT8=
EXTT9=
EXTT10=
PLAYORDER=
